<?xml version="1.0" standalone="no"?>
<!DOCTYPE svg PUBLIC "-//W3C//DTD SVG 20010904//EN"
 "http://www.w3.org/TR/2001/REC-SVG-20010904/DTD/svg10.dtd">
<svg version="1.0" xmlns="http://www.w3.org/2000/svg"
 width="2128.000000pt" height="2128.000000pt" viewBox="0 0 2128.000000 2128.000000"
 preserveAspectRatio="xMidYMid meet">
<metadata>
Created by potrace 1.14, written by Peter Selinger 2001-2017
</metadata>
<g transform="translate(0.000000,2128.000000) scale(0.100000,-0.100000)"
fill="#000000" stroke="none">
<path d="M7678 13309 c-20 -10 -46 -32 -58 -49 -25 -35 -26 -42 -50 -205 -7
-44 -14 -89 -16 -100 -22 -107 -23 -150 -4 -192 22 -50 74 -88 131 -97 25 -4
57 -9 70 -11 13 -2 40 -6 59 -9 19 -3 46 -8 60 -10 14 -3 61 -10 105 -16 44
-7 89 -14 100 -16 28 -5 95 -16 130 -20 17 -2 41 -6 55 -9 14 -3 41 -7 60 -10
19 -3 49 -7 65 -10 51 -9 88 -14 130 -20 22 -3 51 -8 65 -11 43 -8 64 -11 111
-18 25 -4 57 -9 70 -11 13 -2 42 -6 64 -10 22 -3 47 -7 55 -10 8 -2 38 -6 65
-10 28 -3 118 -17 200 -30 83 -13 168 -27 190 -29 22 -3 51 -8 65 -11 14 -3
41 -7 60 -10 19 -3 44 -7 55 -9 24 -4 84 -13 140 -21 23 -3 52 -8 65 -10 14
-3 43 -7 65 -10 22 -3 51 -7 65 -10 14 -3 41 -8 60 -11 19 -2 58 -9 85 -14 28
-5 72 -12 98 -15 27 -4 59 -9 70 -11 12 -2 42 -7 67 -10 25 -3 52 -7 60 -9 8
-2 38 -7 65 -11 28 -3 52 -7 55 -9 3 -2 30 -6 60 -10 30 -3 62 -8 70 -10 8 -3
33 -7 55 -10 22 -2 49 -7 61 -9 12 -2 43 -7 70 -11 27 -3 96 -14 154 -24 123
-20 139 -10 -165 -106 -115 -36 -227 -73 -247 -81 -31 -11 -38 -11 -38 0 0 7
9 21 21 32 12 10 30 32 41 47 l20 28 -29 -5 c-15 -3 -53 -7 -83 -11 -30 -3
-71 -8 -90 -10 -63 -8 -114 -14 -165 -20 -27 -3 -66 -7 -85 -10 -32 -4 -91
-11 -175 -21 -16 -2 -55 -6 -85 -9 -86 -9 -88 -9 -112 -41 -12 -16 -25 -31
-28 -34 -3 -3 -28 -34 -55 -70 -28 -36 -55 -69 -61 -75 -6 -5 -26 -30 -45 -55
-53 -70 -59 -74 -139 -99 -41 -13 -82 -25 -90 -28 -8 -4 -19 -7 -25 -9 -5 -1
-75 -23 -155 -49 -80 -26 -152 -48 -160 -50 -8 -2 -62 -20 -119 -39 -85 -29
-107 -33 -120 -23 -18 14 -2 2 -221 172 -96 75 -184 144 -195 154 -29 27 -87
61 -96 56 -6 -4 -45 -9 -154 -20 -27 -3 -59 -7 -70 -9 -18 -3 -106 -14 -175
-21 -38 -4 -131 -15 -170 -20 -19 -3 -57 -8 -85 -11 -27 -3 -66 -8 -86 -12
l-37 -7 229 -165 c126 -91 239 -173 251 -182 13 -10 63 -46 111 -82 l89 -64
-176 -57 c-189 -60 -185 -58 -163 -115 8 -23 49 -149 51 -163 2 -7 6 -19 9
-27 8 -21 70 -213 73 -225 1 -5 9 -32 19 -60 9 -27 18 -54 19 -60 2 -5 6 -17
9 -25 8 -22 38 -119 41 -133 2 -7 6 -19 9 -27 6 -17 31 -93 32 -100 1 -3 29
-93 64 -200 35 -107 76 -238 93 -290 16 -52 34 -104 39 -115 5 -11 11 -29 12
-40 2 -11 7 -27 10 -35 9 -24 51 -154 53 -165 1 -5 15 -50 32 -100 36 -110 83
-256 87 -270 1 -5 4 -17 7 -25 24 -65 38 -109 42 -130 6 -26 62 -200 76 -235
4 -11 27 -81 49 -155 23 -74 45 -142 48 -150 8 -20 14 -42 15 -57 1 -7 4 -13
7 -13 4 0 8 -12 9 -27 1 -15 7 -32 12 -37 6 -6 10 -18 10 -27 0 -10 4 -20 8
-23 7 -4 201 51 252 71 8 4 17 7 20 7 3 1 59 19 125 40 66 21 190 61 275 88
85 27 162 52 170 55 8 3 20 7 26 8 6 2 75 24 155 50 79 26 149 48 154 49 6 1
24 6 40 13 17 6 66 22 110 36 44 14 181 58 305 97 124 40 248 79 275 87 28 8
59 19 70 23 11 5 38 14 60 20 22 6 47 14 55 17 8 4 17 7 20 8 33 10 96 29 100
29 3 1 19 6 35 13 121 46 209 66 210 48 1 -9 12 -97 21 -170 2 -16 6 -55 10
-85 3 -30 8 -66 10 -80 7 -53 13 -107 19 -164 3 -33 7 -71 9 -85 3 -14 7 -51
11 -81 6 -55 9 -81 21 -175 7 -57 9 -77 18 -160 12 -106 9 -100 52 -98 21 0
62 4 89 7 28 3 68 8 90 10 22 3 65 8 95 11 30 3 86 10 123 16 38 5 73 7 78 3
5 -3 9 -1 9 4 0 5 9 8 21 7 11 -1 46 2 77 6 51 7 80 10 197 25 17 2 48 6 70 8
50 5 137 15 190 23 22 3 58 7 80 9 22 2 58 6 80 9 22 3 59 7 83 10 23 3 61 7
85 10 23 3 58 7 77 9 19 3 55 7 80 10 25 3 68 8 95 11 28 3 64 7 80 10 44 7
114 15 165 20 67 7 129 14 169 19 20 3 59 8 86 11 28 3 61 7 75 9 14 3 42 7
62 10 53 8 184 59 198 78 3 3 12 8 20 10 8 2 19 8 25 13 7 6 29 24 49 40 21
17 58 55 82 85 24 30 48 60 53 66 16 20 48 97 65 155 52 178 -3 394 -133 526
-72 74 -101 96 -181 136 -81 40 -76 37 -64 45 43 31 119 171 140 262 17 70 11
209 -11 280 -55 177 -218 326 -418 384 -70 21 -99 24 -202 21 -66 -2 -131 -6
-145 -9 -14 -3 -54 -9 -90 -12 -36 -3 -76 -7 -90 -10 -14 -2 -50 -6 -80 -9
-30 -3 -66 -8 -80 -10 -24 -4 -116 -15 -170 -20 -14 -1 -43 -5 -65 -8 -40 -6
-84 -11 -185 -22 -30 -3 -66 -8 -80 -10 -14 -2 -50 -7 -80 -10 -56 -6 -87 -9
-175 -20 -27 -3 -71 -8 -97 -10 l-47 -4 -36 116 c-21 63 -38 121 -39 127 -1 6
-4 16 -8 21 -3 6 -20 57 -37 115 -18 58 -35 112 -38 120 -8 18 -6 15 -22 70
-7 25 -13 46 -12 48 1 1 -6 16 -14 32 -8 16 -15 31 -15 32 2 4 1 6 -56 183
-27 83 -48 152 -49 155 0 9 -27 94 -35 115 -9 20 -33 95 -35 105 -2 12 -77
247 -85 265 -4 11 -27 81 -50 155 -23 74 -47 151 -55 170 -7 19 -13 38 -13 43
-1 4 -19 63 -42 132 -45 139 -46 145 -25 145 22 0 71 53 83 91 7 19 14 50 16
69 14 101 18 126 22 138 9 29 19 120 19 182 0 96 -43 148 -135 164 -19 3 -46
8 -60 10 -14 2 -59 10 -100 16 -41 6 -86 14 -100 16 -14 2 -41 7 -60 9 -85 13
-196 31 -250 41 -18 4 -94 15 -135 20 -16 2 -41 6 -55 9 -14 3 -43 8 -65 10
-22 3 -78 11 -124 20 -46 8 -88 12 -92 9 -5 -3 -9 0 -9 6 0 6 -3 9 -7 7 -5 -3
-33 -1 -63 4 -30 5 -73 11 -95 14 -22 3 -47 8 -55 10 -8 2 -35 7 -60 10 -59 8
-108 16 -133 21 -12 2 -39 6 -62 9 -22 3 -78 12 -125 20 -102 17 -132 22 -185
29 -109 17 -216 34 -250 41 -5 1 -30 5 -55 8 -25 4 -74 11 -110 17 -36 6 -78
13 -95 15 -16 1 -57 8 -90 13 -33 6 -76 13 -95 16 -19 3 -46 8 -60 10 -14 3
-43 7 -65 10 -22 3 -49 7 -60 10 -11 2 -40 7 -65 10 -25 3 -56 8 -70 10 -14 3
-59 10 -100 16 -41 6 -86 14 -100 16 -14 2 -41 7 -60 10 -19 3 -60 9 -90 15
-151 28 -220 30 -262 8z m5375 -3633 c105 -17 177 -98 177 -199 0 -112 -84
-196 -210 -212 -30 -3 -66 -8 -80 -10 -14 -2 -54 -7 -90 -10 -36 -4 -73 -9
-83 -11 -10 -2 -46 -6 -80 -9 -34 -3 -73 -8 -87 -10 -14 -2 -50 -7 -80 -10
-30 -3 -66 -8 -80 -10 -14 -2 -52 -6 -85 -9 -33 -4 -76 -9 -95 -11 -19 -3 -51
-7 -70 -9 -64 -7 -145 -17 -170 -21 -14 -2 -50 -7 -80 -10 -30 -4 -58 -9 -62
-11 -4 -3 -8 -1 -8 5 0 5 42 23 93 39 76 25 91 33 89 48 -6 31 -82 268 -93
286 -18 35 -11 58 19 59 15 0 36 2 47 4 11 3 43 7 70 10 28 3 66 7 85 10 19 2
59 7 89 10 30 3 66 7 80 9 14 3 53 7 86 11 33 4 70 8 83 10 28 4 139 17 172
20 58 6 147 17 170 20 14 2 50 7 80 10 30 4 57 8 59 10 2 3 7 3 10 1 3 -2 23
-7 44 -10z m-1198 -546 c-3 -5 -12 -10 -18 -10 -7 0 -6 4 3 10 19 12 23 12 15
0z m1492 -262 c84 -38 124 -99 126 -188 1 -50 -3 -63 -34 -105 -52 -73 -105
-97 -239 -110 -14 -1 -47 -5 -75 -9 -27 -4 -69 -8 -91 -10 -23 -3 -63 -7 -90
-11 -85 -11 -108 -14 -164 -20 -81 -9 -121 -14 -160 -20 -19 -2 -57 -7 -85
-10 -27 -2 -66 -7 -85 -9 -19 -3 -55 -8 -80 -11 -25 -2 -65 -7 -88 -10 -24 -3
-65 -8 -90 -11 -26 -2 -60 -6 -77 -8 -16 -2 -57 -7 -90 -11 -33 -3 -70 -8 -83
-10 -13 -2 -52 -7 -87 -10 l-65 -7 -1 33 c0 19 -2 43 -4 54 -2 11 -7 47 -11
80 -3 33 -8 71 -9 85 -2 14 -6 52 -10 84 -3 33 -8 64 -11 68 -3 4 -2 9 3 9 4
1 22 3 38 5 17 1 68 8 115 14 47 6 103 13 125 15 22 3 60 8 85 11 25 3 63 7
85 9 22 2 60 7 85 10 25 4 65 8 90 11 25 2 59 6 76 9 17 2 57 7 90 10 32 4 70
8 84 10 34 5 116 15 165 20 22 2 58 7 81 10 22 3 63 7 90 10 27 2 49 5 49 6 0
1 11 3 25 4 74 7 143 15 146 17 1 2 29 4 62 6 46 2 72 -3 109 -20z"/>
<path d="M7130 11679 c-25 -3 -72 -10 -105 -13 -33 -4 -71 -9 -85 -11 -14 -2
-50 -7 -80 -10 -30 -3 -66 -7 -80 -9 -14 -2 -52 -7 -85 -11 -33 -3 -78 -9
-100 -11 -22 -3 -58 -7 -80 -9 -71 -8 -129 -15 -170 -20 -74 -10 -100 -13
-164 -20 -35 -3 -78 -8 -95 -10 -64 -9 -193 -25 -246 -31 -30 -3 -66 -7 -80
-9 -14 -1 -52 -6 -86 -9 -33 -4 -71 -8 -85 -11 -13 -2 -51 -6 -84 -10 -33 -3
-73 -8 -90 -10 -71 -11 -191 -25 -254 -30 -20 -2 -36 -4 -36 -5 0 -1 -18 -3
-40 -6 -22 -2 -56 -6 -75 -8 -19 -3 -64 -8 -100 -11 -36 -4 -76 -8 -90 -10
-27 -3 -29 -16 -17 -110 3 -22 13 -109 23 -193 l17 -153 51 5 c28 3 67 8 86
10 19 3 62 8 95 11 33 3 74 8 91 11 17 3 46 6 65 8 63 7 144 17 169 21 14 2
54 7 90 11 36 3 76 8 90 9 37 4 120 15 163 21 20 3 37 2 38 -3 0 -4 2 -17 3
-28 5 -36 16 -129 22 -180 3 -27 7 -61 9 -75 2 -14 6 -52 9 -85 4 -33 9 -75
11 -92 10 -71 14 -100 21 -158 3 -33 8 -73 10 -90 2 -16 5 -48 8 -70 7 -66 18
-159 22 -180 2 -11 7 -49 10 -85 8 -88 11 -110 17 -145 3 -16 8 -59 12 -95 10
-112 6 -105 61 -104 52 1 145 9 205 19 20 3 51 7 70 9 87 9 175 19 189 22 8 1
19 3 23 3 7 1 3 96 -7 151 -4 22 -10 78 -22 190 -7 69 -13 115 -18 140 -2 14
-7 53 -10 86 -3 34 -8 77 -10 95 -9 61 -18 143 -21 179 -2 19 -6 55 -10 80 -7
51 -12 93 -20 165 -11 104 -14 130 -15 130 -1 0 -3 14 -4 30 -2 17 -7 58 -10
91 -4 34 -4 64 1 67 4 3 40 8 78 11 39 4 77 9 85 11 8 2 45 6 82 10 37 3 77 8
90 10 13 2 46 6 73 9 28 3 73 8 100 12 28 3 66 7 85 9 19 2 35 4 35 5 0 1 14
3 30 5 80 7 166 17 182 20 10 2 33 4 52 4 l34 1 -7 73 c-4 39 -9 83 -11 97 -5
42 -24 199 -29 255 -4 33 -12 36 -86 24z"/>
<path d="M4489 11366 c-2 -2 -35 -7 -74 -11 -38 -3 -84 -8 -101 -11 -38 -6
-92 -12 -164 -19 -30 -3 -66 -7 -80 -10 -14 -3 -50 -7 -80 -10 -30 -3 -71 -7
-90 -10 -19 -3 -57 -8 -85 -11 -27 -3 -61 -6 -75 -8 -40 -5 -131 -16 -180 -21
-25 -3 -61 -7 -80 -10 -67 -9 -145 -19 -245 -30 -96 -10 -137 -15 -185 -21
-25 -4 -56 -8 -70 -9 -14 -2 -50 -6 -80 -9 -78 -10 -128 -15 -179 -21 -24 -2
-60 -7 -80 -10 -20 -3 -56 -7 -81 -10 -25 -3 -61 -7 -80 -10 -19 -2 -83 -9
-142 -16 -63 -7 -108 -16 -109 -23 -2 -14 -2 -10 5 -76 11 -98 16 -144 26
-220 13 -96 24 -192 35 -300 2 -14 5 -43 8 -65 4 -22 9 -65 12 -95 3 -30 7
-71 10 -90 2 -19 7 -57 10 -85 3 -27 8 -66 10 -85 5 -32 12 -90 20 -165 8 -76
16 -142 20 -165 3 -14 7 -50 10 -80 2 -30 7 -71 9 -90 3 -19 8 -58 10 -85 3
-28 7 -66 10 -85 11 -76 18 -136 19 -148 0 -12 37 -11 137 3 14 2 52 7 85 11
33 3 69 8 80 11 11 2 49 6 85 8 36 2 76 7 90 10 14 3 53 7 88 11 35 3 73 7 85
10 28 5 108 14 167 19 25 2 45 5 45 5 0 1 11 3 25 5 14 1 48 5 75 8 28 4 73 9
100 12 71 7 126 14 155 19 14 3 54 7 90 10 36 4 76 8 90 10 14 2 51 7 84 11
32 4 68 8 80 10 11 2 50 7 86 10 66 6 86 8 175 21 50 7 79 10 170 19 28 2 61
7 75 9 14 3 50 8 80 11 30 3 69 7 85 9 17 2 36 4 43 5 11 1 12 14 7 59 -4 31
-9 74 -11 95 -2 21 -5 53 -8 70 -3 18 -8 57 -11 87 -3 30 -8 64 -10 75 -2 11
-4 30 -4 43 -1 22 -4 23 -63 17 -35 -3 -79 -7 -98 -10 -130 -17 -157 -20 -240
-29 -31 -4 -71 -9 -90 -11 -19 -3 -55 -7 -80 -10 -25 -3 -63 -7 -85 -10 -22
-3 -62 -7 -90 -10 -27 -3 -62 -8 -77 -11 -15 -2 -53 -6 -85 -9 -32 -3 -71 -7
-88 -10 -16 -2 -57 -6 -90 -10 -33 -3 -71 -8 -85 -10 -50 -8 -106 -15 -160
-20 -30 -2 -64 -6 -75 -8 -11 -3 -51 -8 -88 -12 -37 -3 -76 -8 -85 -10 -9 -1
-50 -6 -89 -10 -58 -6 -73 -4 -74 6 -4 45 -9 87 -13 109 -2 14 -7 51 -11 83
-6 51 -5 57 12 58 10 0 27 2 38 4 11 2 49 7 85 10 36 4 76 8 90 10 14 1 50 6
80 10 30 3 67 8 83 11 15 2 51 6 80 9 49 4 91 9 162 19 17 3 58 8 93 11 35 4
73 8 85 11 12 2 56 7 97 10 41 3 78 8 81 9 7 5 135 18 181 19 21 1 38 3 38 6
0 3 8 6 18 6 16 1 117 12 192 21 19 2 45 5 58 6 19 1 25 8 24 27 -2 27 -12
120 -16 140 -2 14 -7 52 -10 85 -4 33 -9 78 -12 100 -3 22 -6 53 -7 68 l-1 28
-65 -7 c-36 -3 -75 -8 -86 -10 -11 -3 -45 -7 -75 -10 -30 -3 -67 -7 -81 -9
-14 -3 -52 -7 -85 -10 -32 -3 -70 -8 -84 -10 -14 -3 -47 -7 -75 -10 -27 -3
-69 -7 -92 -10 -43 -5 -85 -10 -178 -20 -27 -3 -66 -8 -85 -10 -19 -3 -55 -7
-80 -10 -25 -3 -62 -7 -82 -10 -62 -8 -110 -14 -173 -21 -142 -16 -217 -25
-243 -29 -27 -5 -29 1 -37 80 -15 154 -15 165 -2 166 42 3 170 19 192 23 11 2
54 7 95 11 41 4 83 9 92 10 9 2 44 6 77 10 33 3 68 7 78 9 10 2 50 7 88 10 39
4 81 9 95 11 43 6 134 18 160 20 41 4 143 16 175 20 17 3 53 7 80 10 28 3 84
9 125 15 70 9 97 12 218 25 26 3 62 8 81 10 18 3 59 8 89 11 56 5 86 19 77 34
-3 5 -7 32 -10 62 -3 29 -7 62 -9 73 -2 11 -7 49 -10 85 -4 36 -9 83 -13 105
-7 47 -11 75 -12 93 -1 11 -13 16 -22 8z"/>
<path d="M1815 11322 c-2 -2 -23 -5 -47 -8 -23 -2 -59 -6 -78 -8 -19 -2 -62
-7 -95 -11 -33 -3 -71 -8 -85 -11 -14 -2 -50 -7 -80 -9 -93 -8 -101 -12 -96
-43 10 -57 19 -129 21 -172 2 -25 4 -45 5 -45 3 0 7 -31 14 -101 4 -39 9 -82
11 -94 3 -13 7 -49 10 -79 3 -31 7 -69 9 -86 14 -118 18 -154 23 -180 3 -16 6
-50 8 -75 1 -25 4 -45 5 -45 1 0 3 -13 4 -30 14 -131 18 -168 21 -183 1 -9 6
-48 10 -87 4 -38 9 -79 12 -90 2 -11 6 -57 8 -101 4 -75 2 -86 -25 -141 -17
-33 -41 -66 -55 -73 -14 -7 -25 -17 -25 -21 0 -13 -102 -46 -165 -53 -57 -7
-85 -11 -157 -20 -18 -3 -64 -8 -103 -11 -38 -4 -79 -9 -90 -12 -11 -2 -42 -6
-70 -9 -27 -2 -66 -6 -85 -9 -19 -2 -57 -7 -85 -10 -27 -2 -59 -7 -70 -9 -11
-2 -35 -5 -53 -5 l-32 -1 6 -57 c3 -32 7 -69 9 -83 2 -14 7 -52 10 -85 4 -33
9 -73 11 -90 2 -16 7 -58 10 -92 6 -58 21 -82 43 -69 4 3 34 7 66 11 33 3 76
8 95 11 19 3 55 7 80 9 55 6 84 9 285 34 154 19 219 27 315 37 244 25 380 87
523 238 69 73 135 198 152 288 12 66 12 153 0 241 -4 29 -9 68 -11 87 -2 19
-6 55 -9 80 -3 25 -7 61 -9 80 -2 19 -6 55 -9 80 -17 127 -38 300 -42 340 -5
45 -10 91 -19 165 -4 37 -14 120 -22 184 -1 14 -5 42 -8 61 -2 19 -7 60 -11
90 -3 30 -8 71 -10 90 -7 50 -17 152 -18 173 -1 14 -9 17 -50 15 -27 -2 -50
-4 -52 -6z"/>
<path d="M20180 10718 c-58 -7 -136 -16 -210 -24 -25 -3 -57 -7 -71 -9 -14 -3
-52 -7 -85 -10 -32 -3 -70 -8 -84 -10 -14 -2 -52 -7 -85 -10 -33 -3 -78 -9
-100 -12 -22 -3 -51 -7 -65 -8 -14 -2 -28 -3 -31 -4 -6 -1 -114 -109 -355
-358 -49 -50 -142 -145 -206 -211 l-117 -119 -63 40 c-35 22 -92 59 -128 82
-36 23 -114 73 -175 110 -60 38 -112 71 -115 74 -7 8 -39 28 -77 47 -18 9 -33
20 -33 25 0 5 -4 9 -10 9 -5 0 -55 29 -111 64 -55 36 -106 63 -112 61 -15 -5
-86 -14 -152 -21 -99 -9 -222 -23 -270 -31 -16 -2 -50 -6 -75 -9 -25 -2 -61
-6 -80 -9 -19 -2 -62 -7 -95 -11 -33 -4 -69 -8 -80 -10 -11 -1 -31 -3 -44 -3
-20 -1 -21 -3 -11 -16 7 -8 17 -15 22 -15 5 0 29 -13 53 -30 24 -16 46 -30 50
-30 4 0 26 -13 50 -30 24 -16 46 -30 49 -30 4 0 30 -15 59 -34 28 -18 86 -53
127 -77 41 -24 77 -47 78 -51 2 -5 8 -8 13 -8 5 0 155 -88 334 -195 178 -107
329 -195 335 -195 5 0 10 -4 10 -9 0 -5 14 -14 30 -21 17 -7 30 -14 30 -15 0
-3 -139 -141 -401 -397 -76 -73 -270 -263 -433 -422 -163 -159 -296 -293 -296
-298 0 -5 4 -7 9 -3 10 5 113 20 218 30 29 2 65 7 80 9 16 3 51 7 78 11 28 3
66 8 85 10 19 3 58 8 85 10 28 3 66 7 85 10 19 2 60 6 91 10 31 3 67 8 80 10
23 4 79 59 591 584 172 177 188 190 210 181 12 -6 75 -44 138 -85 63 -42 123
-78 133 -82 9 -3 17 -9 17 -14 0 -5 4 -9 10 -9 9 0 203 -119 227 -140 7 -5 14
-10 17 -10 3 0 45 -25 93 -56 132 -84 132 -85 137 -82 2 2 15 -6 28 -18 13
-11 41 -31 63 -43 34 -20 48 -22 100 -16 87 10 126 14 165 19 59 7 154 19 180
21 14 2 25 4 25 4 0 1 23 4 50 6 51 4 94 9 175 20 25 3 67 8 94 10 90 8 94 14
35 47 -30 17 -62 37 -71 46 -10 8 -18 11 -18 7 0 -4 -8 -1 -17 7 -10 8 -83 54
-163 101 -80 46 -237 140 -350 207 -113 68 -225 134 -250 148 -25 13 -52 31
-61 38 -8 8 -18 14 -22 14 -4 0 -101 56 -187 109 -8 6 -50 30 -92 55 -74 44
-90 60 -69 68 5 2 159 150 343 330 183 179 414 405 513 502 139 137 174 176
155 174 -14 -1 -50 -6 -80 -10z"/>
<path d="M16257 10254 c-2 -2 -95 -13 -157 -20 -32 -3 -57 -6 -165 -19 -22 -3
-56 -7 -75 -9 -19 -2 -55 -7 -80 -10 -25 -3 -67 -8 -95 -12 -27 -3 -63 -7 -80
-9 -16 -1 -55 -6 -85 -9 -30 -4 -71 -8 -90 -11 -79 -10 -146 -18 -170 -20 -30
-3 -125 -15 -160 -20 -14 -2 -54 -6 -90 -10 -36 -4 -76 -8 -90 -10 -14 -2 -50
-7 -80 -10 -110 -13 -135 -18 -190 -42 -122 -52 -208 -116 -272 -201 -49 -64
-99 -169 -106 -222 -7 -49 -6 -208 2 -250 4 -19 8 -53 11 -75 5 -43 14 -119
20 -175 3 -19 7 -57 10 -85 3 -27 7 -61 10 -75 3 -14 7 -52 10 -85 3 -33 7
-76 10 -95 3 -19 7 -53 10 -75 21 -169 111 -302 265 -395 107 -64 186 -84 320
-84 107 0 179 5 240 18 14 3 52 7 85 10 33 3 76 7 95 10 19 3 58 7 85 11 28 3
64 7 80 9 17 2 57 7 90 11 33 3 74 8 90 11 17 2 50 6 75 9 60 5 137 14 180 20
19 3 58 8 85 11 28 3 64 7 80 9 17 2 57 6 90 10 33 3 71 8 85 10 14 2 48 7 75
10 45 6 155 24 180 30 43 10 195 85 195 96 0 5 5 9 11 9 17 0 118 114 154 172
64 107 84 227 62 378 -8 53 -10 73 -22 185 -2 28 -7 66 -10 85 -2 19 -7 60
-10 90 -4 30 -9 71 -11 90 -3 19 -7 49 -8 65 -31 338 -70 419 -271 572 -43 33
-172 82 -235 89 -45 6 -150 11 -153 8z m-13 -491 c41 -20 75 -52 92 -86 15
-28 17 -37 28 -132 10 -81 17 -138 21 -170 2 -16 7 -52 9 -80 6 -55 13 -106
22 -175 16 -115 10 -158 -28 -213 -27 -37 -105 -76 -170 -82 -29 -3 -64 -8
-78 -10 -14 -2 -52 -7 -85 -10 -33 -3 -71 -7 -85 -9 -14 -3 -52 -8 -85 -11
-33 -4 -70 -8 -83 -10 -28 -4 -139 -17 -172 -20 -58 -6 -147 -17 -170 -20 -28
-5 -120 -15 -165 -20 -16 -2 -55 -6 -85 -11 -151 -21 -238 2 -285 75 -29 44
-36 76 -51 231 -1 19 -5 49 -7 65 -3 17 -8 59 -12 95 -3 36 -9 79 -12 95 -8
51 -15 127 -16 185 -1 73 22 117 80 157 44 29 69 36 163 47 19 3 62 8 95 12
67 7 87 10 160 18 28 3 66 8 85 10 19 3 60 8 90 12 30 3 66 7 80 9 14 2 57 6
95 10 39 4 79 9 90 11 11 3 45 7 75 10 71 6 97 11 110 19 5 3 10 1 10 -5 0 -6
4 -8 10 -5 5 3 31 9 57 12 27 3 49 6 50 7 1 1 32 2 69 3 44 1 78 -4 98 -14z"/>
</g>
</svg>
